<?xml version="1.0" encoding="UTF-8" standalone="no"?>
<!DOCTYPE svg PUBLIC "-//W3C//DTD SVG 1.1//EN"
 "http://www.w3.org/Graphics/SVG/1.1/DTD/svg11.dtd">
<!-- Generated by graphviz version 2.40.1 (20161225.0304)
 -->
<!-- Title: %3 Pages: 1 -->
<svg width="739pt" height="464pt"
 viewBox="0.00 0.00 739.00 463.69" xmlns="http://www.w3.org/2000/svg" xmlns:xlink="http://www.w3.org/1999/xlink">
<g id="graph0" class="graph" transform="scale(1 1) rotate(0) translate(4 459.6851)">
<title>%3</title>
<polygon fill="#ffffff" stroke="transparent" points="-4,4 -4,-459.6851 735,-459.6851 735,4 -4,4"/>
<!-- &#45;4193332759711864001 -->
<g id="node1" class="node">
<title>&#45;4193332759711864001</title>
<polygon fill="none" stroke="#000000" points="381,-455.6851 327,-455.6851 327,-419.6851 381,-419.6851 381,-455.6851"/>
</g>
<!-- 6343614786163906253 -->
<g id="node2" class="node">
<title>6343614786163906253</title>
<ellipse fill="none" stroke="#000000" cx="354" cy="-357.6874" rx="25.9954" ry="25.9954"/>
<text text-anchor="middle" x="354" y="-353.9874" font-family="Times,serif" font-size="14.00" fill="#000000">sum</text>
</g>
<!-- 6343614786163906253&#45;&gt;&#45;4193332759711864001 -->
<g id="edge1" class="edge">
<title>6343614786163906253&#45;&gt;&#45;4193332759711864001</title>
<path fill="none" stroke="#000000" d="M354,-383.8817C354,-392.0839 354,-401.1688 354,-409.502"/>
<polygon fill="#000000" stroke="#000000" points="350.5001,-409.5324 354,-419.5324 357.5001,-409.5324 350.5001,-409.5324"/>
</g>
<!-- &#45;5601979565544331740 -->
<g id="node3" class="node">
<title>&#45;5601979565544331740</title>
<polygon fill="none" stroke="#000000" points="185,-295.6897 131,-295.6897 131,-259.6897 185,-259.6897 185,-295.6897"/>
</g>
<!-- &#45;5601979565544331740&#45;&gt;6343614786163906253 -->
<g id="edge2" class="edge">
<title>&#45;5601979565544331740&#45;&gt;6343614786163906253</title>
<path fill="none" stroke="#000000" d="M185.253,-288.8131C220.4966,-303.1978 281.8792,-328.2512 320.0962,-343.8496"/>
<polygon fill="#000000" stroke="#000000" points="319.1704,-347.2519 329.7515,-347.7904 321.8156,-340.771 319.1704,-347.2519"/>
</g>
<!-- 2225927842972734825 -->
<g id="node4" class="node">
<title>2225927842972734825</title>
<polygon fill="none" stroke="#000000" points="302,-295.6897 248,-295.6897 248,-259.6897 302,-259.6897 302,-295.6897"/>
</g>
<!-- 2225927842972734825&#45;&gt;6343614786163906253 -->
<g id="edge3" class="edge">
<title>2225927842972734825&#45;&gt;6343614786163906253</title>
<path fill="none" stroke="#000000" d="M292.9263,-295.8424C303.3826,-306.4308 316.7484,-319.9654 328.3089,-331.6719"/>
<polygon fill="#000000" stroke="#000000" points="326.0794,-334.3954 335.5964,-339.0514 331.0602,-329.4768 326.0794,-334.3954"/>
</g>
<!-- 7716101102653085993 -->
<g id="node5" class="node">
<title>7716101102653085993</title>
<polygon fill="none" stroke="#000000" points="381,-295.6897 327,-295.6897 327,-259.6897 381,-259.6897 381,-295.6897"/>
</g>
<!-- 7716101102653085993&#45;&gt;6343614786163906253 -->
<g id="edge4" class="edge">
<title>7716101102653085993&#45;&gt;6343614786163906253</title>
<path fill="none" stroke="#000000" d="M354,-295.8424C354,-303.3969 354,-312.4511 354,-321.2711"/>
<polygon fill="#000000" stroke="#000000" points="350.5001,-321.4135 354,-331.4136 357.5001,-321.4136 350.5001,-321.4135"/>
</g>
<!-- 3822890905068580728 -->
<g id="node6" class="node">
<title>3822890905068580728</title>
<polygon fill="none" stroke="#000000" points="472,-295.6897 418,-295.6897 418,-259.6897 472,-259.6897 472,-295.6897"/>
</g>
<!-- 3822890905068580728&#45;&gt;6343614786163906253 -->
<g id="edge5" class="edge">
<title>3822890905068580728&#45;&gt;6343614786163906253</title>
<path fill="none" stroke="#000000" d="M424.3507,-295.8424C411.6383,-307.0178 395.1926,-321.4752 381.3988,-333.6013"/>
<polygon fill="#000000" stroke="#000000" points="378.8315,-331.198 373.6319,-340.4291 383.4533,-336.4553 378.8315,-331.198"/>
</g>
<!-- 123183926175771420 -->
<g id="node7" class="node">
<title>123183926175771420</title>
<polygon fill="none" stroke="#000000" points="601,-295.6897 547,-295.6897 547,-259.6897 601,-259.6897 601,-295.6897"/>
</g>
<!-- 123183926175771420&#45;&gt;6343614786163906253 -->
<g id="edge6" class="edge">
<title>123183926175771420&#45;&gt;6343614786163906253</title>
<path fill="none" stroke="#000000" d="M546.5817,-287.6597C506.5087,-302.2313 431.9773,-329.3329 388.3181,-345.2085"/>
<polygon fill="#000000" stroke="#000000" points="386.9104,-341.9961 378.7085,-348.7028 389.3026,-348.5747 386.9104,-341.9961"/>
</g>
<!-- 7172916743678831527 -->
<g id="node8" class="node">
<title>7172916743678831527</title>
<ellipse fill="none" stroke="#000000" cx="248" cy="-200.2918" rx="23.2963" ry="23.2963"/>
<text text-anchor="middle" x="248" y="-196.5918" font-family="Times,serif" font-size="14.00" fill="#000000">add</text>
</g>
<!-- 7172916743678831527&#45;&gt;2225927842972734825 -->
<g id="edge7" class="edge">
<title>7172916743678831527&#45;&gt;2225927842972734825</title>
<path fill="none" stroke="#000000" d="M255.8095,-222.6785C258.7743,-231.1772 262.1872,-240.9607 265.3052,-249.8987"/>
<polygon fill="#000000" stroke="#000000" points="262.0621,-251.2283 268.6606,-259.5174 268.6715,-248.9226 262.0621,-251.2283"/>
</g>
<!-- &#45;3354896027595185222 -->
<g id="node9" class="node">
<title>&#45;3354896027595185222</title>
<polygon fill="none" stroke="#000000" points="202,-140.8939 148,-140.8939 148,-104.8939 202,-104.8939 202,-140.8939"/>
</g>
<!-- &#45;3354896027595185222&#45;&gt;7172916743678831527 -->
<g id="edge8" class="edge">
<title>&#45;3354896027595185222&#45;&gt;7172916743678831527</title>
<path fill="none" stroke="#000000" d="M192.3,-141.2361C202.0289,-151.5512 214.3021,-164.5637 224.8501,-175.7472"/>
<polygon fill="#000000" stroke="#000000" points="222.4169,-178.2684 231.8244,-183.1417 227.5092,-173.4655 222.4169,-178.2684"/>
</g>
<!-- 4708881262252500229 -->
<g id="node10" class="node">
<title>4708881262252500229</title>
<polygon fill="none" stroke="#000000" points="275,-140.8939 221,-140.8939 221,-104.8939 275,-104.8939 275,-140.8939"/>
</g>
<!-- 4708881262252500229&#45;&gt;7172916743678831527 -->
<g id="edge9" class="edge">
<title>4708881262252500229&#45;&gt;7172916743678831527</title>
<path fill="none" stroke="#000000" d="M248,-141.2361C248,-148.883 248,-158.0124 248,-166.78"/>
<polygon fill="#000000" stroke="#000000" points="244.5001,-166.7957 248,-176.7958 251.5001,-166.7958 244.5001,-166.7957"/>
</g>
<!-- &#45;31886241827526880 -->
<g id="node11" class="node">
<title>&#45;31886241827526880</title>
<ellipse fill="none" stroke="#000000" cx="174" cy="-34.4469" rx="21.3963" ry="21.3963"/>
<text text-anchor="middle" x="174" y="-30.7469" font-family="Times,serif" font-size="14.00" fill="#000000">inc</text>
</g>
<!-- &#45;31886241827526880&#45;&gt;&#45;3354896027595185222 -->
<g id="edge10" class="edge">
<title>&#45;31886241827526880&#45;&gt;&#45;3354896027595185222</title>
<path fill="none" stroke="#000000" d="M174.2472,-56.3102C174.3778,-67.8634 174.5397,-82.1795 174.6798,-94.5732"/>
<polygon fill="#000000" stroke="#000000" points="171.1831,-94.8923 174.796,-104.852 178.1826,-94.8131 171.1831,-94.8923"/>
</g>
<!-- 1885105711440416243 -->
<g id="node12" class="node">
<title>1885105711440416243</title>
<ellipse fill="none" stroke="#000000" cx="248" cy="-34.4469" rx="34.394" ry="34.394"/>
<text text-anchor="middle" x="248" y="-30.7469" font-family="Times,serif" font-size="14.00" fill="#000000">double</text>
</g>
<!-- 1885105711440416243&#45;&gt;4708881262252500229 -->
<g id="edge11" class="edge">
<title>1885105711440416243&#45;&gt;4708881262252500229</title>
<path fill="none" stroke="#000000" d="M248,-68.8961C248,-77.395 248,-86.401 248,-94.5715"/>
<polygon fill="#000000" stroke="#000000" points="244.5001,-94.7183 248,-104.7184 251.5001,-94.7184 244.5001,-94.7183"/>
</g>
<!-- 4274155834350930322 -->
<g id="node13" class="node">
<title>4274155834350930322</title>
<ellipse fill="none" stroke="#000000" cx="631" cy="-200.2918" rx="23.2963" ry="23.2963"/>
<text text-anchor="middle" x="631" y="-196.5918" font-family="Times,serif" font-size="14.00" fill="#000000">add</text>
</g>
<!-- 4274155834350930322&#45;&gt;123183926175771420 -->
<g id="edge12" class="edge">
<title>4274155834350930322&#45;&gt;123183926175771420</title>
<path fill="none" stroke="#000000" d="M616.9101,-219.4239C609.7824,-229.1022 601.023,-240.9964 593.2807,-251.5092"/>
<polygon fill="#000000" stroke="#000000" points="590.4521,-249.4479 587.3403,-259.5754 596.0886,-253.5989 590.4521,-249.4479"/>
</g>
<!-- 2141625721504840260 -->
<g id="node14" class="node">
<title>2141625721504840260</title>
<polygon fill="none" stroke="#000000" points="658,-140.8939 604,-140.8939 604,-104.8939 658,-104.8939 658,-140.8939"/>
</g>
<!-- 2141625721504840260&#45;&gt;4274155834350930322 -->
<g id="edge13" class="edge">
<title>2141625721504840260&#45;&gt;4274155834350930322</title>
<path fill="none" stroke="#000000" d="M631,-141.2361C631,-148.883 631,-158.0124 631,-166.78"/>
<polygon fill="#000000" stroke="#000000" points="627.5001,-166.7957 631,-176.7958 634.5001,-166.7958 627.5001,-166.7957"/>
</g>
<!-- &#45;590274212081968483 -->
<g id="node15" class="node">
<title>&#45;590274212081968483</title>
<polygon fill="none" stroke="#000000" points="731,-140.8939 677,-140.8939 677,-104.8939 731,-104.8939 731,-140.8939"/>
</g>
<!-- &#45;590274212081968483&#45;&gt;4274155834350930322 -->
<g id="edge14" class="edge">
<title>&#45;590274212081968483&#45;&gt;4274155834350930322</title>
<path fill="none" stroke="#000000" d="M686.7,-141.2361C676.9711,-151.5512 664.6979,-164.5637 654.1499,-175.7472"/>
<polygon fill="#000000" stroke="#000000" points="651.4908,-173.4655 647.1756,-183.1417 656.5831,-178.2684 651.4908,-173.4655"/>
</g>
<!-- 7703483425262638587 -->
<g id="node16" class="node">
<title>7703483425262638587</title>
<ellipse fill="none" stroke="#000000" cx="705" cy="-34.4469" rx="21.3963" ry="21.3963"/>
<text text-anchor="middle" x="705" y="-30.7469" font-family="Times,serif" font-size="14.00" fill="#000000">inc</text>
</g>
<!-- 7703483425262638587&#45;&gt;&#45;590274212081968483 -->
<g id="edge15" class="edge">
<title>7703483425262638587&#45;&gt;&#45;590274212081968483</title>
<path fill="none" stroke="#000000" d="M704.7528,-56.3102C704.6222,-67.8634 704.4603,-82.1795 704.3202,-94.5732"/>
<polygon fill="#000000" stroke="#000000" points="700.8174,-94.8131 704.204,-104.852 707.8169,-94.8923 700.8174,-94.8131"/>
</g>
<!-- 74689237858505674 -->
<g id="node17" class="node">
<title>74689237858505674</title>
<ellipse fill="none" stroke="#000000" cx="631" cy="-34.4469" rx="34.394" ry="34.394"/>
<text text-anchor="middle" x="631" y="-30.7469" font-family="Times,serif" font-size="14.00" fill="#000000">double</text>
</g>
<!-- 74689237858505674&#45;&gt;2141625721504840260 -->
<g id="edge16" class="edge">
<title>74689237858505674&#45;&gt;2141625721504840260</title>
<path fill="none" stroke="#000000" d="M631,-68.8961C631,-77.395 631,-86.401 631,-94.5715"/>
<polygon fill="#000000" stroke="#000000" points="627.5001,-94.7183 631,-104.7184 634.5001,-94.7184 627.5001,-94.7183"/>
</g>
<!-- &#45;4045005755219911026 -->
<g id="node18" class="node">
<title>&#45;4045005755219911026</title>
<ellipse fill="none" stroke="#000000" cx="483" cy="-200.2918" rx="23.2963" ry="23.2963"/>
<text text-anchor="middle" x="483" y="-196.5918" font-family="Times,serif" font-size="14.00" fill="#000000">add</text>
</g>
<!-- &#45;4045005755219911026&#45;&gt;3822890905068580728 -->
<g id="edge17" class="edge">
<title>&#45;4045005755219911026&#45;&gt;3822890905068580728</title>
<path fill="none" stroke="#000000" d="M472.6163,-221.4411C468.2324,-230.3704 463.0719,-240.8811 458.4057,-250.3851"/>
<polygon fill="#000000" stroke="#000000" points="455.2168,-248.9388 453.9513,-259.4578 461.5003,-252.0238 455.2168,-248.9388"/>
</g>
<!-- &#45;7198671106421773516 -->
<g id="node19" class="node">
<title>&#45;7198671106421773516</title>
<polygon fill="none" stroke="#000000" points="510,-140.8939 456,-140.8939 456,-104.8939 510,-104.8939 510,-140.8939"/>
</g>
<!-- &#45;7198671106421773516&#45;&gt;&#45;4045005755219911026 -->
<g id="edge18" class="edge">
<title>&#45;7198671106421773516&#45;&gt;&#45;4045005755219911026</title>
<path fill="none" stroke="#000000" d="M483,-141.2361C483,-148.883 483,-158.0124 483,-166.78"/>
<polygon fill="#000000" stroke="#000000" points="479.5001,-166.7957 483,-176.7958 486.5001,-166.7958 479.5001,-166.7957"/>
</g>
<!-- &#45;1329334863325457451 -->
<g id="node20" class="node">
<title>&#45;1329334863325457451</title>
<polygon fill="none" stroke="#000000" points="583,-140.8939 529,-140.8939 529,-104.8939 583,-104.8939 583,-140.8939"/>
</g>
<!-- &#45;1329334863325457451&#45;&gt;&#45;4045005755219911026 -->
<g id="edge19" class="edge">
<title>&#45;1329334863325457451&#45;&gt;&#45;4045005755219911026</title>
<path fill="none" stroke="#000000" d="M538.7,-141.2361C528.9711,-151.5512 516.6979,-164.5637 506.1499,-175.7472"/>
<polygon fill="#000000" stroke="#000000" points="503.4908,-173.4655 499.1756,-183.1417 508.5831,-178.2684 503.4908,-173.4655"/>
</g>
<!-- 8250244861185396227 -->
<g id="node21" class="node">
<title>8250244861185396227</title>
<ellipse fill="none" stroke="#000000" cx="557" cy="-34.4469" rx="21.3963" ry="21.3963"/>
<text text-anchor="middle" x="557" y="-30.7469" font-family="Times,serif" font-size="14.00" fill="#000000">inc</text>
</g>
<!-- 8250244861185396227&#45;&gt;&#45;1329334863325457451 -->
<g id="edge20" class="edge">
<title>8250244861185396227&#45;&gt;&#45;1329334863325457451</title>
<path fill="none" stroke="#000000" d="M556.7528,-56.3102C556.6222,-67.8634 556.4603,-82.1795 556.3202,-94.5732"/>
<polygon fill="#000000" stroke="#000000" points="552.8174,-94.8131 556.204,-104.852 559.8169,-94.8923 552.8174,-94.8131"/>
</g>
<!-- &#45;4275662820399841862 -->
<g id="node22" class="node">
<title>&#45;4275662820399841862</title>
<ellipse fill="none" stroke="#000000" cx="483" cy="-34.4469" rx="34.394" ry="34.394"/>
<text text-anchor="middle" x="483" y="-30.7469" font-family="Times,serif" font-size="14.00" fill="#000000">double</text>
</g>
<!-- &#45;4275662820399841862&#45;&gt;&#45;7198671106421773516 -->
<g id="edge21" class="edge">
<title>&#45;4275662820399841862&#45;&gt;&#45;7198671106421773516</title>
<path fill="none" stroke="#000000" d="M483,-68.8961C483,-77.395 483,-86.401 483,-94.5715"/>
<polygon fill="#000000" stroke="#000000" points="479.5001,-94.7183 483,-104.7184 486.5001,-94.7184 479.5001,-94.7183"/>
</g>
<!-- &#45;5392886245903772697 -->
<g id="node23" class="node">
<title>&#45;5392886245903772697</title>
<ellipse fill="none" stroke="#000000" cx="354" cy="-200.2918" rx="23.2963" ry="23.2963"/>
<text text-anchor="middle" x="354" y="-196.5918" font-family="Times,serif" font-size="14.00" fill="#000000">add</text>
</g>
<!-- &#45;5392886245903772697&#45;&gt;7716101102653085993 -->
<g id="edge22" class="edge">
<title>&#45;5392886245903772697&#45;&gt;7716101102653085993</title>
<path fill="none" stroke="#000000" d="M354,-223.9343C354,-231.9363 354,-240.9559 354,-249.2885"/>
<polygon fill="#000000" stroke="#000000" points="350.5001,-249.3475 354,-259.3475 357.5001,-249.3475 350.5001,-249.3475"/>
</g>
<!-- 611739531030867384 -->
<g id="node24" class="node">
<title>611739531030867384</title>
<polygon fill="none" stroke="#000000" points="362,-140.8939 308,-140.8939 308,-104.8939 362,-104.8939 362,-140.8939"/>
</g>
<!-- 611739531030867384&#45;&gt;&#45;5392886245903772697 -->
<g id="edge23" class="edge">
<title>611739531030867384&#45;&gt;&#45;5392886245903772697</title>
<path fill="none" stroke="#000000" d="M339.5027,-141.2361C341.4322,-149.096 343.7462,-158.5222 345.953,-167.5119"/>
<polygon fill="#000000" stroke="#000000" points="342.5897,-168.4921 348.3729,-177.3693 349.3878,-166.8232 342.5897,-168.4921"/>
</g>
<!-- &#45;7965372695328193838 -->
<g id="node25" class="node">
<title>&#45;7965372695328193838</title>
<polygon fill="none" stroke="#000000" points="435,-140.8939 381,-140.8939 381,-104.8939 435,-104.8939 435,-140.8939"/>
</g>
<!-- &#45;7965372695328193838&#45;&gt;&#45;5392886245903772697 -->
<g id="edge24" class="edge">
<title>&#45;7965372695328193838&#45;&gt;&#45;5392886245903772697</title>
<path fill="none" stroke="#000000" d="M395.2028,-141.2361C388.6727,-150.5957 380.5931,-162.1761 373.3233,-172.5958"/>
<polygon fill="#000000" stroke="#000000" points="370.3105,-170.7973 367.4589,-181.0012 376.0513,-174.8026 370.3105,-170.7973"/>
</g>
<!-- 303497977687142888 -->
<g id="node26" class="node">
<title>303497977687142888</title>
<ellipse fill="none" stroke="#000000" cx="409" cy="-34.4469" rx="21.3963" ry="21.3963"/>
<text text-anchor="middle" x="409" y="-30.7469" font-family="Times,serif" font-size="14.00" fill="#000000">inc</text>
</g>
<!-- 303497977687142888&#45;&gt;&#45;7965372695328193838 -->
<g id="edge25" class="edge">
<title>303497977687142888&#45;&gt;&#45;7965372695328193838</title>
<path fill="none" stroke="#000000" d="M408.7528,-56.3102C408.6222,-67.8634 408.4603,-82.1795 408.3202,-94.5732"/>
<polygon fill="#000000" stroke="#000000" points="404.8174,-94.8131 408.204,-104.852 411.8169,-94.8923 404.8174,-94.8131"/>
</g>
<!-- &#45;3935487232658763954 -->
<g id="node27" class="node">
<title>&#45;3935487232658763954</title>
<ellipse fill="none" stroke="#000000" cx="335" cy="-34.4469" rx="34.394" ry="34.394"/>
<text text-anchor="middle" x="335" y="-30.7469" font-family="Times,serif" font-size="14.00" fill="#000000">double</text>
</g>
<!-- &#45;3935487232658763954&#45;&gt;611739531030867384 -->
<g id="edge26" class="edge">
<title>&#45;3935487232658763954&#45;&gt;611739531030867384</title>
<path fill="none" stroke="#000000" d="M335,-68.8961C335,-77.395 335,-86.401 335,-94.5715"/>
<polygon fill="#000000" stroke="#000000" points="331.5001,-94.7183 335,-104.7184 338.5001,-94.7184 331.5001,-94.7183"/>
</g>
<!-- &#45;5670022270201407766 -->
<g id="node28" class="node">
<title>&#45;5670022270201407766</title>
<ellipse fill="none" stroke="#000000" cx="100" cy="-200.2918" rx="23.2963" ry="23.2963"/>
<text text-anchor="middle" x="100" y="-196.5918" font-family="Times,serif" font-size="14.00" fill="#000000">add</text>
</g>
<!-- &#45;5670022270201407766&#45;&gt;&#45;5601979565544331740 -->
<g id="edge27" class="edge">
<title>&#45;5670022270201407766&#45;&gt;&#45;5601979565544331740</title>
<path fill="none" stroke="#000000" d="M114.0402,-219.0277C121.3415,-228.7709 130.385,-240.839 138.3676,-251.4913"/>
<polygon fill="#000000" stroke="#000000" points="135.6908,-253.7558 144.4885,-259.6593 141.2925,-249.558 135.6908,-253.7558"/>
</g>
<!-- 2471835606298327949 -->
<g id="node29" class="node">
<title>2471835606298327949</title>
<polygon fill="none" stroke="#000000" points="54,-140.8939 0,-140.8939 0,-104.8939 54,-104.8939 54,-140.8939"/>
</g>
<!-- 2471835606298327949&#45;&gt;&#45;5670022270201407766 -->
<g id="edge28" class="edge">
<title>2471835606298327949&#45;&gt;&#45;5670022270201407766</title>
<path fill="none" stroke="#000000" d="M44.3,-141.2361C54.0289,-151.5512 66.3021,-164.5637 76.8501,-175.7472"/>
<polygon fill="#000000" stroke="#000000" points="74.4169,-178.2684 83.8244,-183.1417 79.5092,-173.4655 74.4169,-178.2684"/>
</g>
<!-- 5093373341307499135 -->
<g id="node30" class="node">
<title>5093373341307499135</title>
<polygon fill="none" stroke="#000000" points="127,-140.8939 73,-140.8939 73,-104.8939 127,-104.8939 127,-140.8939"/>
</g>
<!-- 5093373341307499135&#45;&gt;&#45;5670022270201407766 -->
<g id="edge29" class="edge">
<title>5093373341307499135&#45;&gt;&#45;5670022270201407766</title>
<path fill="none" stroke="#000000" d="M100,-141.2361C100,-148.883 100,-158.0124 100,-166.78"/>
<polygon fill="#000000" stroke="#000000" points="96.5001,-166.7957 100,-176.7958 103.5001,-166.7958 96.5001,-166.7957"/>
</g>
<!-- 8722455391334830379 -->
<g id="node31" class="node">
<title>8722455391334830379</title>
<ellipse fill="none" stroke="#000000" cx="26" cy="-34.4469" rx="21.3963" ry="21.3963"/>
<text text-anchor="middle" x="26" y="-30.7469" font-family="Times,serif" font-size="14.00" fill="#000000">inc</text>
</g>
<!-- 8722455391334830379&#45;&gt;2471835606298327949 -->
<g id="edge30" class="edge">
<title>8722455391334830379&#45;&gt;2471835606298327949</title>
<path fill="none" stroke="#000000" d="M26.2472,-56.3102C26.3778,-67.8634 26.5397,-82.1795 26.6798,-94.5732"/>
<polygon fill="#000000" stroke="#000000" points="23.1831,-94.8923 26.796,-104.852 30.1826,-94.8131 23.1831,-94.8923"/>
</g>
<!-- 5282032990715702157 -->
<g id="node32" class="node">
<title>5282032990715702157</title>
<ellipse fill="none" stroke="#000000" cx="100" cy="-34.4469" rx="34.394" ry="34.394"/>
<text text-anchor="middle" x="100" y="-30.7469" font-family="Times,serif" font-size="14.00" fill="#000000">double</text>
</g>
<!-- 5282032990715702157&#45;&gt;5093373341307499135 -->
<g id="edge31" class="edge">
<title>5282032990715702157&#45;&gt;5093373341307499135</title>
<path fill="none" stroke="#000000" d="M100,-68.8961C100,-77.395 100,-86.401 100,-94.5715"/>
<polygon fill="#000000" stroke="#000000" points="96.5001,-94.7183 100,-104.7184 103.5001,-94.7184 96.5001,-94.7183"/>
</g>
</g>
</svg>
